<svg width="55" height="55" viewBox="0 0 55 55" fill="none" xmlns="http://www.w3.org/2000/svg">
<g filter="url(#filter0_d_1_102)">
<circle opacity="0.1" cx="29.5" cy="21.6738" r="21" fill="#F6762C" stroke="black"/>
<path d="M8.26953 15.3666H16.8076C17.8623 15.3666 18.7434 15.7301 19.4785 16.4652C20.2135 17.2002 20.577 18.0804 20.5771 19.1351V34.7894C20.5771 36.264 20.29 37.6684 19.7168 39.0062C19.2123 40.1835 18.555 41.2172 17.7451 42.1107L17.3887 42.4847C16.4131 43.4603 15.2547 44.2373 13.9092 44.8138C12.5712 45.387 11.1671 45.6742 9.69238 45.6742H8.26953C8.02198 45.6742 7.81425 45.5894 7.62207 45.3978C7.43089 45.2066 7.3457 44.9978 7.3457 44.7504V41.9047C7.3457 41.6567 7.43086 41.4484 7.62207 41.2572C7.81384 41.0657 8.02178 40.9808 8.26953 40.9808H9.69238C11.3965 40.9808 12.8649 40.3723 14.0703 39.1674C15.2755 37.9618 15.8847 36.4935 15.8848 34.7894V34.0775C15.8847 33.3536 15.6253 32.7219 15.1152 32.2123C14.6054 31.7026 13.9739 31.4427 13.25 31.4427H8.26953C7.21483 31.4427 6.33407 31.0793 5.59863 30.3441C4.86346 29.609 4.5 28.7291 4.5 27.6742V19.1361C4.5 18.1471 4.81931 17.3113 5.46484 16.6049L5.59863 16.4652C6.33411 15.7301 7.21463 15.3666 8.26953 15.3666Z" fill="#F6762C" stroke="black"/>
<path d="M28.192 15.3665H36.7311C37.7198 15.3666 38.5553 15.6859 39.2614 16.3313L39.401 16.4651C40.0905 17.1541 40.453 17.9709 40.4957 18.9397L40.4996 19.136V34.7893C40.4996 36.2639 40.2134 37.6686 39.6403 39.0061C39.0641 40.3512 38.2867 41.509 37.3112 42.4846C36.3355 43.4602 35.1778 44.2372 33.8326 44.8137C32.4945 45.3869 31.0903 45.674 29.6158 45.6741H28.192C27.9445 45.674 27.7367 45.5889 27.5455 45.3977C27.3542 45.2065 27.2692 44.9975 27.2692 44.7502V41.9045C27.2692 41.6567 27.3541 41.4483 27.5455 41.2571C27.7368 41.0659 27.9446 40.9808 28.192 40.9807H29.6158C31.3201 40.9806 32.7885 40.3723 33.9938 39.1672C35.1993 37.9617 35.8082 36.4934 35.8082 34.7893V34.0774C35.8081 33.4438 35.609 32.8814 35.2184 32.4094L35.0387 32.2122C34.5289 31.7025 33.8971 31.4427 33.1735 31.4426H28.192C27.1373 31.4426 26.2572 31.079 25.5221 30.344C24.7871 29.6089 24.4235 28.729 24.4235 27.6741V19.136C24.4235 18.1469 24.7428 17.3112 25.3883 16.6047L25.5221 16.4651C26.2572 15.7301 27.1372 15.3665 28.192 15.3665Z" fill="#F6762C" stroke="black"/>
</g>
<defs>
<filter id="filter0_d_1_102" x="0" y="0.173828" width="55" height="54.0001" filterUnits="userSpaceOnUse" color-interpolation-filters="sRGB">
<feFlood flood-opacity="0" result="BackgroundImageFix"/>
<feColorMatrix in="SourceAlpha" type="matrix" values="0 0 0 0 0 0 0 0 0 0 0 0 0 0 0 0 0 0 127 0" result="hardAlpha"/>
<feOffset dy="4"/>
<feGaussianBlur stdDeviation="2"/>
<feComposite in2="hardAlpha" operator="out"/>
<feColorMatrix type="matrix" values="0 0 0 0 0 0 0 0 0 0 0 0 0 0 0 0 0 0 0.25 0"/>
<feBlend mode="normal" in2="BackgroundImageFix" result="effect1_dropShadow_1_102"/>
<feBlend mode="normal" in="SourceGraphic" in2="effect1_dropShadow_1_102" result="shape"/>
</filter>
</defs>
</svg>
